<svg width="592" height="433" viewBox="0 0 592 433" fill="none" xmlns="http://www.w3.org/2000/svg">
    <g clip-path="url(#clip0_1426_340)">
        <path
            d="M330.438 426.144C448.085 426.144 543.456 330.749 543.456 213.072C543.456 95.3957 448.085 0 330.438 0C212.791 0 117.42 95.3957 117.42 213.072C117.42 330.749 212.791 426.144 330.438 426.144Z"
            fill="#F2F2F2" />
        <path
            d="M395.543 133.099C426.138 133.099 450.94 108.291 450.94 77.6893C450.94 47.087 426.138 22.2791 395.543 22.2791C364.949 22.2791 340.147 47.087 340.147 77.6893C340.147 108.291 364.949 133.099 395.543 133.099Z"
            fill="#285e61" />
        <path
            d="M163.312 41.4054L164.826 72.9815C171.103 81.3553 177.874 90.9378 184.557 101.381L185.512 53.2088L186.038 53.5454C178.308 48.0216 170.449 43.7954 162.785 41.1127L163.312 41.4054Z"
            fill="#243763" />
        <path
            d="M163.723 71.5145L162.256 40.9277C153.649 37.9915 145.297 37.0174 137.664 38.3792C137.267 38.45 136.876 38.5316 136.487 38.6143C138.426 40.6958 149.73 52.9885 163.723 71.5145Z"
            fill="#243763" />
        <path
            d="M233.221 109.186L233.729 109.671C231.643 105.746 229.432 101.931 227.095 98.2242L212.861 154.247L212.62 154.035C213.649 156.492 214.628 158.933 215.556 161.357L233.221 109.186Z"
            fill="#243763" />
        <path
            d="M211.536 77.336L212.06 77.7556C204.535 68.8367 195.98 60.8406 186.574 53.9346L185.601 103.025C191.82 112.842 197.388 122.512 202.305 132.034L211.536 77.336Z"
            fill="#243763" />
        <path
            d="M108.28 92.6622C109.08 100.936 110.714 109.109 113.156 117.055L198.038 125.812C193.607 117.638 189.033 109.97 184.592 102.981L108.496 93.3298L108.28 92.6622Z"
            fill="#243763" />
        <path
            d="M116.244 126.218L116.015 125.551L201.924 133.189C200.887 131.159 199.837 129.155 198.776 127.178L113.58 118.389L113.356 117.721C114.215 120.522 115.178 123.354 116.244 126.218Z"
            fill="#243763" />
        <path
            d="M226.128 97.0562L226.644 97.5117C222.385 90.8112 217.679 84.4058 212.557 78.3392L203.201 133.777C206.444 140.145 209.381 146.423 212.012 152.612L226.128 97.0562Z"
            fill="#243763" />
        <path
            d="M224.311 189.662C227.725 204.44 229.019 218.413 228.165 231.427C232.969 221.188 251.239 178.772 244.41 139.241L224.311 189.662Z"
            fill="#243763" />
        <path
            d="M132.004 156.095C136.549 162.22 141.5 168.033 146.823 173.495L146.616 172.755L223.034 188.48C221.046 180.228 218.565 172.102 215.604 164.147L132.004 156.095Z"
            fill="#243763" />
        <path
            d="M163.063 72.0303C147.919 51.9903 135.969 39.3241 135.797 39.1428L135.994 38.7206C124.502 41.3304 116.387 49.1515 111.923 60.4719L163.063 72.0303Z"
            fill="#243763" />
        <path
            d="M216.263 163.238C216.545 163.992 216.832 164.747 217.105 165.498C219.729 172.689 221.96 180.019 223.788 187.453L243.696 137.51L244.182 137.998C242.922 131.048 240.786 124.286 237.827 117.874C236.652 115.359 235.423 112.883 234.139 110.445L216.263 163.238Z"
            fill="#243763" />
        <path
            d="M183.703 101.589C177.088 91.2683 170.394 81.801 164.189 73.5257L111.875 61.7017L111.697 61.0413C108.432 69.644 107.238 80.2122 108.227 92.0159L183.703 101.589Z"
            fill="#243763" />
        <path
            d="M223.344 189.792L147.484 174.182C179.392 206.945 224.034 232.072 226.883 233.66C228.212 219.225 226.705 204.398 223.344 189.792Z"
            fill="#243763" />
        <path
            d="M215.067 162.802L215.084 162.752C211.436 153.134 207.274 143.719 202.614 134.548L116.493 126.891C117.955 130.764 119.608 134.678 121.451 138.634C124.135 144.269 127.327 149.648 130.988 154.704L215.067 162.802Z"
            fill="#243763" />
        <path
            d="M324.616 147.763L305.647 173.048C305.142 183.502 304.247 195.202 302.735 207.51L334.187 171.016L334.378 171.612C331.946 162.425 328.589 154.157 324.397 147.201L324.616 147.763Z"
            fill="#243763" />
        <path
            d="M305.733 171.214L324.107 146.721C319.35 138.968 313.539 132.89 306.791 129.069C306.44 128.87 306.088 128.684 305.735 128.499C305.902 131.34 306.769 148.019 305.733 171.214Z"
            fill="#243763" />
        <path
            d="M335.238 244.567L335.32 245.264C336.216 240.911 336.946 236.562 337.51 232.216L290.824 266.283L290.774 265.966C289.999 268.515 289.197 271.02 288.366 273.479L335.238 244.567Z"
            fill="#243763" />
        <path
            d="M338.846 206.202L338.982 206.86C338.874 195.189 337.383 183.573 334.542 172.253L302.49 209.441C301.02 220.97 299.143 231.97 296.858 242.44L338.846 206.202Z"
            fill="#243763" />
        <path
            d="M249.547 152.131C244.887 159.014 240.934 166.35 237.748 174.028L297.539 234.926C299.338 225.804 300.705 216.98 301.741 208.764L249.287 152.783L249.547 152.131Z"
            fill="#243763" />
        <path
            d="M234.284 183.056L234.533 182.397L295.828 243.088C296.324 240.862 296.793 238.649 297.236 236.449L237.224 175.327L237.477 174.67C236.353 177.375 235.288 180.17 234.284 183.056Z"
            fill="#243763" />
        <path
            d="M337.51 230.699L337.617 231.38C338.609 223.502 339.069 215.566 338.993 207.626L296.437 244.354C294.874 251.328 293.132 258.037 291.213 264.482L337.51 230.699Z"
            fill="#243763" />
        <path
            d="M277.06 300.864C270.267 314.425 262.353 326.012 253.397 335.49C263.626 330.669 304.744 309.656 324.691 274.853L277.06 300.864Z"
            fill="#243763" />
        <path
            d="M227.37 216.121C226.966 223.738 227.072 231.374 227.689 238.977L228.001 238.275L276.831 299.139C280.561 291.515 283.832 283.674 286.624 275.659L227.37 216.121Z"
            fill="#243763" />
        <path
            d="M304.896 171.191C306.01 146.094 304.884 128.715 304.867 128.466L305.288 128.267C294.772 122.945 283.536 123.792 272.878 129.662L304.896 171.191Z"
            fill="#243763" />
        <path
            d="M287.711 275.378C287.448 276.139 287.187 276.904 286.919 277.656C284.354 284.869 281.399 291.938 278.066 298.83L325.245 273.065L325.309 273.751C328.77 267.594 331.436 261.024 333.246 254.196C333.945 251.511 334.577 248.819 335.143 246.122L287.711 275.378Z"
            fill="#243763" />
        <path
            d="M301.944 207.124C303.431 194.956 304.312 183.393 304.809 173.061L272.057 130.579L272.342 129.957C264.341 134.499 256.683 141.877 249.918 151.599L301.944 207.124Z"
            fill="#243763" />
        <path
            d="M276.233 300.347L227.76 239.928C231.444 285.518 249.804 333.351 250.986 336.392C261.214 326.122 269.508 313.741 276.233 300.347Z"
            fill="#243763" />
        <path
            d="M287.068 274.28L287.113 274.252C290.437 264.517 293.234 254.61 295.493 244.573L234.047 183.733C232.703 187.649 231.48 191.718 230.377 195.94C228.85 201.993 227.879 208.173 227.475 214.402L287.068 274.28Z"
            fill="#243763" />
        <path
            d="M135.486 181.522L146.683 211.083C155.24 217.106 164.641 224.126 174.224 231.992L160.246 185.883L160.85 186.041C151.791 183.177 143.012 181.588 134.894 181.406L135.486 181.522Z"
            fill="#243763" />
        <path
            d="M145.18 210.029L134.334 181.394C125.241 181.262 116.997 182.918 110.158 186.573C109.802 186.763 109.456 186.962 109.111 187.161C111.599 188.541 126.148 196.737 145.18 210.029Z"
            fill="#243763" />
        <path
            d="M222.916 224.369L223.549 224.673C220.353 221.586 217.071 218.641 213.703 215.838L217.478 273.518L217.183 273.391C218.922 275.41 220.607 277.428 222.239 279.447L222.916 224.369Z"
            fill="#243763" />
        <path
            d="M192.452 200.783L193.08 201.02C183.167 194.864 172.559 189.905 161.48 186.245L175.725 233.232C184.673 240.646 192.956 248.12 200.575 255.656L192.452 200.783Z"
            fill="#243763" />
        <path
            d="M98.9882 247.283C102.306 254.905 106.384 262.172 111.162 268.973L194.595 251.058C187.855 244.655 181.135 238.776 174.752 233.503L99.3997 247.851L98.9882 247.283Z"
            fill="#243763" />
        <path
            d="M116.931 276.733L116.508 276.17L200.57 256.873C198.956 255.263 197.338 253.681 195.718 252.13L111.978 270.111L111.559 269.545C113.241 271.943 115.032 274.339 116.931 276.733Z"
            fill="#243763" />
        <path
            d="M212.422 215.026L213.054 215.299C206.933 210.244 200.478 205.607 193.732 201.421L201.966 257.037C207.017 262.09 211.751 267.153 216.166 272.226L212.422 215.026Z"
            fill="#243763" />
        <path
            d="M239.311 303.659C247.125 316.658 252.673 329.547 255.883 342.187C257.288 330.964 261.556 284.976 242.845 249.493L239.311 303.659Z"
            fill="#243763" />
        <path
            d="M141.151 300.275C147.367 304.694 153.872 308.692 160.622 312.241L160.196 311.601L237.732 302.929C233.291 295.696 228.421 288.735 223.147 282.085L141.151 300.275Z"
            fill="#243763" />
        <path
            d="M144.712 210.724C124.117 196.347 108.838 187.996 108.619 187.877L108.676 187.414C98.5525 193.449 93.2524 203.396 92.5046 215.543L144.712 210.724Z"
            fill="#243763" />
        <path
            d="M223.492 281.017C223.993 281.646 224.5 282.276 224.991 282.906C229.709 288.934 234.096 295.214 238.132 301.72L241.631 248.067L242.245 248.381C238.898 242.161 234.778 236.391 229.981 231.207C228.088 229.179 226.153 227.204 224.178 225.282L223.492 281.017Z"
            fill="#243763" />
        <path
            d="M173.475 232.453C163.996 224.683 154.703 217.749 146.245 211.798L92.8392 216.727L92.4664 216.154C92.0189 225.345 94.1491 235.765 98.7373 246.685L173.475 232.453Z"
            fill="#243763" />
        <path
            d="M238.432 304.081L161.463 312.689C201.933 333.983 252.153 344.077 255.354 344.707C252.157 330.568 246.141 316.933 238.432 304.081Z"
            fill="#243763" />
        <path
            d="M222.22 280.972L222.22 280.92C215.779 272.9 208.911 265.233 201.645 257.952L117.376 277.296C119.963 280.527 122.745 283.739 125.72 286.931C130.014 291.461 134.712 295.589 139.756 299.266L222.22 280.972Z"
            fill="#243763" />
        <path
            d="M592 362.166C592 387.721 460.577 433 298.458 433C136.339 433 4.91595 387.721 4.91595 362.166C4.91595 336.612 136.339 340.459 298.458 340.459C460.577 340.459 592 336.612 592 362.166Z"
            fill="#3F3D56" />
        <path opacity="0.1"
            d="M592 362.166C592 387.721 460.577 433 298.458 433C136.339 433 4.91595 387.721 4.91595 362.166C4.91595 336.612 136.339 340.459 298.458 340.459C460.577 340.459 592 336.612 592 362.166Z"
            fill="black" />
        <path
            d="M298.458 408.437C460.577 408.437 592 387.721 592 362.166C592 336.612 460.577 315.896 298.458 315.896C136.339 315.896 4.91595 336.612 4.91595 362.166C4.91595 387.721 136.339 408.437 298.458 408.437Z"
            fill="#3F3D56" />
        <path opacity="0.1"
            d="M349.35 313.804C349.35 341.645 310.553 333.033 263.05 333.033C215.547 333.033 177.327 341.645 177.327 313.804C177.327 285.963 216.119 279.908 263.621 279.908C311.124 279.908 349.35 285.963 349.35 313.804Z"
            fill="black" />
        <path
            d="M349.35 306.949C349.35 334.79 310.553 326.178 263.05 326.178C215.547 326.178 177.327 334.79 177.327 306.949C177.327 279.108 216.119 273.053 263.621 273.053C311.124 273.053 349.35 279.108 349.35 306.949Z"
            fill="#3F3D56" />
        <path
            d="M196.535 230.342C197.58 229.599 198.733 229.02 199.954 228.627C207.695 225.746 215.806 223.98 224.044 223.382C231.207 222.874 238.97 223.478 244.565 227.98C245.435 228.619 246.147 229.449 246.647 230.406C247.35 231.926 247.137 233.692 246.909 235.35C246.858 235.994 246.696 236.624 246.43 237.212C245.677 238.645 243.823 239.148 242.214 238.976C240.604 238.804 239.093 238.123 237.505 237.807C236.522 237.635 235.528 237.534 234.531 237.504L224.571 236.964C218.378 236.629 212.103 236.299 206.028 237.549C204.158 237.886 202.351 238.509 200.67 239.396C199.283 240.175 198.348 241.293 197.061 239.854C194.799 237.326 193.547 232.678 196.535 230.342Z"
            fill="#2F2E41" />
        <path
            d="M211.969 234.748C211.969 234.748 225.365 228.741 230.446 235.672C235.527 242.603 227.674 239.831 227.674 239.831L218.898 242.603L209.197 240.755L211.969 234.748Z"
            fill="#F2F2F2" />
        <path
            d="M212.661 230.358C212.661 230.358 214.509 239.137 213.123 241.448C211.738 243.758 220.976 246.992 220.976 246.992L229.753 243.296C229.753 243.296 227.443 228.972 229.753 226.2L212.661 230.358Z"
            fill="#FFB9B9" />
        <path opacity="0.1"
            d="M212.661 230.358C212.661 230.358 214.509 239.137 213.123 241.448C211.738 243.758 220.976 246.992 220.976 246.992L229.753 243.296C229.753 243.296 227.443 228.972 229.753 226.2L212.661 230.358Z"
            fill="black" />
        <path
            d="M204.005 335.92C205.247 338.496 206.269 341.173 207.058 343.922C207.071 344.013 207.103 344.1 207.152 344.177C207.201 344.255 207.266 344.321 207.342 344.372C207.418 344.423 207.504 344.457 207.595 344.472C207.685 344.487 207.778 344.483 207.867 344.46L216.083 344.451C217.097 344.45 218.458 344.124 218.447 343.11C218.44 342.397 217.711 341.953 217.169 341.49C215.665 340.206 215.274 338.09 214.651 336.213C213.44 332.597 211.107 329.462 207.991 327.265C207.569 326.935 207.085 326.696 206.567 326.561C206.046 326.486 205.515 326.514 205.006 326.646C203.563 326.937 198.177 327.933 199.195 330.031C199.633 330.935 201.256 331.875 201.937 332.72C202.73 333.716 203.423 334.788 204.005 335.92Z"
            fill="#575A89" />
        <path
            d="M232.578 326.388C232.288 326.997 231.966 327.59 231.612 328.164C230.421 330.128 229.017 331.96 227.908 333.971C227.161 335.2 226.7 336.581 226.558 338.012C226.495 338.728 226.604 339.448 226.877 340.112C227.15 340.777 227.579 341.366 228.126 341.831C229.319 342.736 230.954 342.778 232.437 342.567C233.919 342.356 235.393 341.931 236.886 342.043C236.383 339.194 238.785 336.686 239.386 333.855C239.555 333.06 239.58 332.236 239.806 331.455C240.05 330.742 240.361 330.053 240.736 329.399C241.933 327.068 242.778 324.574 243.245 321.996C243.302 321.683 235.942 321.632 235.251 321.781C233.097 322.248 233.412 324.601 232.578 326.388Z"
            fill="#575A89" />
        <path
            d="M175.847 281.623C173.746 284.912 174.23 289.27 175.706 292.884C177.182 296.497 179.53 299.691 181.138 303.248C182.163 305.515 182.882 307.92 184.036 310.124C185.465 312.854 187.551 315.26 188.51 318.188C189.122 320.055 189.262 322.1 190.252 323.797C190.851 324.703 191.534 325.551 192.292 326.328C194.425 328.772 196.026 331.634 196.995 334.73C197.9 332.033 200.61 330.265 203.393 329.682C206.177 329.099 209.061 329.495 211.877 329.893C210.306 327.459 208.72 324.994 207.784 322.252C206.878 319.6 206.611 316.78 206.001 314.045C204.75 308.437 202.078 303.264 199.432 298.164L213.03 297.085C215.249 296.862 217.481 296.779 219.711 296.837C223.221 297.003 226.659 297.863 230.15 298.261C233.641 298.659 237.334 298.555 240.445 296.921C234.496 305.459 231.398 315.66 231.594 326.065C232.923 325.035 234.466 324.315 236.11 323.958C237.754 323.601 239.457 323.617 241.094 324.003C242.731 324.389 244.261 325.137 245.572 326.192C246.883 327.246 247.941 328.58 248.67 330.097C253.999 322.813 253.366 312.672 257.588 304.695C258.456 303.055 259.521 301.527 260.458 299.925C262.228 296.708 263.744 293.357 264.992 289.903C266.173 286.881 267.363 283.519 266.23 280.479C265.76 279.325 265.075 278.272 264.211 277.374C261.775 274.687 258.384 272.699 254.758 272.617C249.193 272.49 244.595 276.616 239.713 279.292C233.885 282.39 227.293 283.758 220.713 283.233C214.007 282.758 207.603 280.562 201.214 278.629C198.018 277.616 194.769 276.778 191.482 276.118C188.742 275.604 186.133 276.173 183.433 276.874C180.493 277.637 177.539 278.974 175.847 281.623Z"
            fill="#2F2E41" />
        <path
            d="M233.911 221.579C233.907 225.255 232.446 228.779 229.848 231.378C227.25 233.977 223.727 235.438 220.052 235.441C219.227 235.442 218.402 235.368 217.59 235.219C214.997 234.751 212.591 233.552 210.654 231.764C208.717 229.976 207.331 227.673 206.657 225.125C205.982 222.576 206.049 219.888 206.848 217.376C207.647 214.864 209.145 212.632 211.168 210.942C213.19 209.252 215.652 208.173 218.266 207.833C220.879 207.494 223.535 207.906 225.923 209.023C228.31 210.139 230.33 211.914 231.744 214.138C233.159 216.362 233.911 218.943 233.911 221.579Z"
            fill="#FFB9B9" />
        <path
            d="M211.969 234.748C211.969 234.748 214.509 235.903 215.433 236.827C216.357 237.751 219.129 242.834 223.748 239.6C228.367 236.365 228.829 234.517 230.215 234.517C231.601 234.517 233.449 237.289 233.449 237.289L246.152 275.409C242.728 279.274 238.76 282.621 234.372 285.343C226.981 289.963 218.205 292.274 214.047 290.426C209.89 288.577 202.037 287.191 200.651 283.495C199.265 279.798 196.956 268.709 196.956 268.709L203.423 240.524L211.969 234.748Z"
            fill="#F2F2F2" />
        <path
            d="M210.185 273.301C211.192 271.125 211.339 268.662 211.424 266.266C211.559 263.893 211.497 261.512 211.236 259.149C210.826 256.058 209.82 253.081 209.185 250.028C208.628 247.351 208.357 244.623 208.377 241.888C208.386 240.641 208.476 239.327 209.156 238.281C209.63 237.551 210.372 236.986 210.668 236.167C211.249 234.563 209.814 232.882 208.24 232.221C206.324 231.503 204.228 231.419 202.261 231.981C200.309 232.545 198.423 233.317 196.636 234.283C195.284 234.86 194.041 235.663 192.961 236.659C191.527 238.143 190.896 240.211 190.387 242.211C189.98 243.812 189.618 245.481 189.928 247.104C190.431 249.738 192.579 251.72 193.723 254.146C195.053 256.963 194.963 260.246 194.434 263.316C193.906 266.386 192.967 269.387 192.678 272.489C192.388 275.59 192.832 278.924 194.775 281.359C195.567 282.351 197.714 284.703 199.164 284.436C200.302 284.227 201.953 281.72 202.87 280.926C205.52 278.63 208.663 276.588 210.185 273.301Z"
            fill="#2F2E41" />
        <path
            d="M234.387 233.241C234.428 235.818 233.292 238.268 231.956 240.472C230.621 242.676 229.052 244.76 228.068 247.142C226.845 250.124 226.595 253.416 227.354 256.548C227.636 257.615 227.977 258.666 228.373 259.695L230.904 266.639C231.245 267.731 231.739 268.769 232.372 269.722C232.944 270.451 233.616 271.097 234.367 271.641C236.289 273.194 238.501 274.348 240.875 275.037C243.264 275.721 245.815 275.575 248.111 274.624C248.355 265.21 249.867 255.872 252.606 246.863C253.112 245.2 253.665 243.449 253.275 241.755C252.838 239.857 251.314 238.433 249.866 237.131C245.436 233.152 240.564 228.973 234.635 228.436C231.203 228.126 234.358 231.378 234.387 233.241Z"
            fill="#2F2E41" />
        <path
            d="M204.073 286.962C204.424 287.649 204.643 288.399 204.99 289.089C205.503 290.014 206.137 290.866 206.875 291.624C209.964 295.049 213.739 298.462 218.346 298.669C218.804 298.711 219.265 298.653 219.698 298.498C220.088 298.299 220.423 298.007 220.674 297.648C220.924 297.29 221.084 296.875 221.137 296.441C221.464 294.651 220.674 292.866 219.884 291.228C218.17 287.677 216.242 284.037 213.033 281.748C211.431 280.649 209.601 279.929 207.68 279.64C205.76 279.351 203.799 279.501 201.944 280.079C200.273 280.594 197.502 281.493 199.715 283.018C201.393 284.175 203.099 285.056 204.073 286.962Z"
            fill="#FFB9B9" />
        <path
            d="M223.989 241.763C223.508 240.464 222.77 239.275 221.821 238.266C220.863 237.456 219.729 236.882 218.509 236.588C216.929 236.137 215.295 235.903 213.651 235.892C211.695 235.88 209.427 236.405 208.596 238.176C207.936 239.583 208.448 241.249 209.112 242.654C209.396 243.382 209.868 244.02 210.481 244.504C211.325 245.075 212.416 245.056 213.416 245.247C214.967 245.641 216.435 246.307 217.754 247.214L221.18 249.285L227.066 252.844C226.911 252.75 226.966 248.713 226.785 248.051C226.203 245.92 224.892 243.781 223.989 241.763Z"
            fill="#FFB9B9" />
        <path
            d="M206.844 342.876C205.467 344.748 205.743 347.424 204.523 349.402C203.466 351.117 201.473 352.016 200.15 353.535C199.728 354.04 199.352 354.581 199.026 355.153C197.799 357.208 196.802 359.843 198.01 361.91C198.982 363.572 201.025 364.222 202.899 364.665C205.268 365.224 207.729 365.672 210.124 365.245C212.52 364.817 214.862 363.35 215.716 361.07C215.884 360.497 216.083 359.934 216.314 359.383C217.612 356.825 221.685 356.798 223.014 354.256C223.944 352.478 223.089 350.328 222.235 348.512L219.625 342.966C218.759 341.125 215.247 342.183 213.417 341.742C211.029 341.167 208.561 340.533 206.844 342.876Z"
            fill="#2F2E41" />
        <path
            d="M227.032 338.111C225.964 338.953 225.147 340.072 224.671 341.347C223.379 344.328 222.935 347.596 222.505 350.816C222.259 352.097 222.234 353.41 222.43 354.7C222.987 357.33 225.369 359.266 227.934 360.07C230.498 360.874 233.248 360.751 235.933 360.619C236.799 360.641 237.658 360.467 238.447 360.108C239.796 359.364 240.323 357.615 240.092 356.092C239.861 354.568 239.029 353.213 238.214 351.905C237.4 350.597 236.567 349.242 236.334 347.719C235.941 345.157 237.048 341.396 235.475 339.078C233.898 336.756 229.137 336.636 227.032 338.111Z"
            fill="#2F2E41" />
        <path
            d="M233.562 214.355C233.315 213.526 232.772 212.817 232.036 212.364C232.074 211.476 231.965 210.587 231.714 209.735C230.875 207.253 228.887 207.395 227.011 206.298C226.197 205.822 226.247 205.401 225.824 204.62C225.268 203.595 224.437 202.746 223.424 202.17C222.22 201.403 220.95 200.613 219.526 200.516C216.534 200.312 214.24 203.127 211.381 204.03C210.12 204.429 208.766 204.445 207.499 204.821C206.231 205.198 204.967 206.097 204.778 207.405C204.691 208.009 204.845 208.629 204.757 209.233C204.581 210.434 203.528 211.274 202.823 212.262C201.265 214.445 201.443 217.53 202.689 219.905C202.952 220.397 203.252 220.867 203.588 221.312C203.692 222.435 204.014 223.527 204.537 224.526C205.783 226.901 207.928 228.676 210.169 230.151C209.985 229.363 209.874 228.56 209.836 227.752C209.805 227.483 209.84 227.21 209.938 226.958C210.188 226.436 210.847 226.297 211.35 226.011C212.391 225.419 212.8 224.11 212.83 222.912C212.86 221.715 212.606 220.515 212.731 219.324C212.736 219.05 212.799 218.78 212.914 218.532C213.03 218.283 213.196 218.062 213.403 217.882C213.787 217.662 214.226 217.558 214.668 217.58C216.801 217.493 219.03 217.454 220.912 216.445C221.519 216.041 222.171 215.711 222.855 215.461C224.454 215.044 226.089 216.165 227.011 217.537C227.932 218.91 228.392 220.542 229.242 221.96C230.092 223.377 231.561 224.641 233.206 224.474C233.298 224.474 233.39 224.454 233.474 224.417C233.559 224.379 233.635 224.324 233.697 224.255C233.767 224.128 233.799 223.982 233.787 223.837L233.879 217.55C233.955 216.475 233.848 215.395 233.562 214.355Z"
            fill="#2F2E41" />
        <path
            d="M189.705 247.238C188.383 249.189 186.858 251.065 186.132 253.307C185.704 254.625 185.572 256.018 185.263 257.369C184.232 261.867 181.256 265.862 180.957 270.467C180.853 271.49 181.003 272.523 181.395 273.474C182.248 275.332 184.291 276.311 186.24 276.927C188.189 277.542 190.282 277.986 191.838 279.312C192.621 280.063 193.331 280.886 193.959 281.771C196.497 284.929 199.911 287.266 203.772 288.488C203.467 286.385 203.324 283.851 205.004 282.552C205.914 281.848 207.129 281.723 208.275 281.624L213.687 281.156C210.078 277.654 206.1 274.555 201.822 271.911C200.326 270.986 198.697 270.011 198.014 268.389C197.661 267.344 197.514 266.241 197.582 265.14C197.545 261.114 197.204 257.096 196.562 253.121C196.117 250.361 195.527 247.625 194.852 244.912C194.663 244.151 193.543 240.734 192.165 241.534C191.84 241.722 191.537 243.889 191.347 244.339C190.896 245.357 190.346 246.327 189.705 247.238Z"
            fill="#2F2E41" />
        <path
            d="M252.044 239.864L254.254 244.462C255.319 246.353 255.804 248.515 255.648 250.68L255.779 264.472C255.881 266.315 255.728 268.163 255.325 269.964C255.188 270.558 254.928 271.116 254.563 271.604C254.188 272.025 253.746 272.381 253.256 272.658C249.073 275.272 243.648 276.758 239.229 274.567C238.217 274.027 237.254 273.399 236.353 272.689C234.591 271.385 232.804 270.054 231.486 268.302C230.107 266.469 229.317 264.274 228.389 262.175C226.724 258.411 224.572 254.881 221.989 251.676C221.562 251.253 221.283 250.701 221.197 250.105C221.17 248.896 222.604 248.301 223.722 247.841C225.632 247.055 227.433 245.539 227.753 243.498C231.815 248.826 236.297 254.455 242.707 256.402C242.807 256.466 242.923 256.502 243.043 256.506C243.162 256.509 243.28 256.481 243.384 256.423C243.488 256.365 243.575 256.28 243.635 256.177C243.695 256.073 243.726 255.956 243.724 255.837C244.088 254.314 244.217 252.746 244.483 251.203C244.971 248.394 245.911 245.682 247.266 243.173C248.025 241.767 250.484 236.619 252.044 239.864Z"
            fill="#2F2E41" />
        <path opacity="0.1"
            d="M197.195 253.161C197.256 256.425 196.563 259.659 195.17 262.611C194.807 263.263 194.54 263.964 194.377 264.693C194.134 266.246 195.018 267.75 196.028 268.954C198.021 271.323 200.606 273.122 203.519 274.167"
            fill="black" />
        <path opacity="0.1"
            d="M245.191 250.41C244.866 251.286 245.161 252.255 245.412 253.155C246.14 255.766 246.479 258.47 246.42 261.18C246.431 261.228 246.429 261.277 246.416 261.324C246.403 261.37 246.378 261.413 246.344 261.448C246.31 261.483 246.268 261.508 246.222 261.523C246.176 261.537 246.126 261.54 246.079 261.53C245.012 261.596 243.792 261.603 243.068 260.816"
            fill="black" />
        <path opacity="0.1"
            d="M426.383 381.017C466.124 381.017 498.341 374.112 498.341 365.594C498.341 357.076 466.124 350.17 426.383 350.17C386.642 350.17 354.425 357.076 354.425 365.594C354.425 374.112 386.642 381.017 426.383 381.017Z"
            fill="black" />
        <path d="M462.362 227.925L457.222 233.066L462.362 238.207L467.502 227.925H462.362Z"
            fill="#A0616A" />
        <path
            d="M463.519 183.345C464.962 183.936 465.648 185.55 466.191 187.011L472.859 204.932L474.156 208.42C474.793 210.13 475.43 211.842 475.968 213.586C476.308 214.689 476.609 215.804 476.87 216.93C477.14 217.893 477.244 218.895 477.177 219.894C476.997 220.992 476.596 222.043 475.999 222.982C473.679 227.023 470.375 230.412 466.395 232.834C466.166 231.352 465.568 229.952 464.658 228.76C463.747 227.569 462.553 226.626 461.183 226.016L464.631 224.119C465.36 223.776 466.016 223.296 466.563 222.704C466.897 222.242 467.134 221.717 467.261 221.161C467.388 220.605 467.401 220.03 467.301 219.469C467.094 218.349 466.75 217.259 466.277 216.223C465.121 213.335 464.117 210.388 463.27 207.395C462.769 205.624 462.309 203.805 461.317 202.255C460.417 200.85 459.113 199.726 458.295 198.27C457.048 196.053 457.08 193.322 457.631 190.839C458.096 188.742 458.875 186.724 459.531 184.682C460.046 183.078 461.975 182.713 463.519 183.345Z"
            fill="#D0CDE1" />
        <path
            d="M431.731 135.466C429.079 136.362 426.678 138.456 426.135 141.202C425.883 142.475 426.037 143.798 425.826 145.078C425.334 148.047 423.005 150.314 420.856 152.42C418.707 154.526 416.488 156.973 416.331 159.978C416.159 163.268 418.545 166.351 418.132 169.62C417.653 173.418 413.642 175.879 412.651 179.577C411.989 182.046 412.8 184.705 414.135 186.885C416.678 191.039 421.025 193.859 425.655 195.371C430.284 196.883 435.214 197.201 440.084 197.252C446.013 197.314 452.451 196.805 456.906 192.891C459.451 190.635 461.049 187.5 461.38 184.115C461.803 179.581 459.911 174.896 461.216 170.533C462.038 167.788 464.097 165.28 463.79 162.431C463.489 159.645 461.057 157.67 459.388 155.419C457.83 153.318 456.884 150.836 455.957 148.39L452.787 140.018C452.164 138.373 451.479 136.642 450.09 135.562C447.49 133.54 443.308 133.937 440.268 134.354C437.447 134.741 434.443 134.55 431.731 135.466Z"
            fill="#2F2E41" />
        <path
            d="M434.183 163.054C434.183 163.054 434.494 172.367 433.563 173.298C432.632 174.229 437.287 180.438 437.287 180.438L445.666 180.127L450.011 176.713L446.287 171.746C446.287 171.746 444.735 163.675 445.976 161.813C447.218 159.95 434.183 163.054 434.183 163.054Z"
            fill="#A0616A" />
        <path opacity="0.1"
            d="M434.183 163.054C434.183 163.054 434.494 172.367 433.563 173.298C432.632 174.229 437.287 180.438 437.287 180.438L445.666 180.127L450.011 176.713L446.287 171.746C446.287 171.746 444.735 163.675 445.976 161.813C447.218 159.95 434.183 163.054 434.183 163.054Z"
            fill="black" />
        <path d="M414.787 234.916L420.063 246.712L424.097 241.746L416.028 231.191L414.787 234.916Z"
            fill="#A0616A" />
        <path
            d="M400.667 353.031L398.494 365.138L394.77 370.415L396.942 371.656L400.667 371.035L405.011 369.483L406.873 362.344L410.287 353.031H400.667Z"
            fill="#A0616A" />
        <path
            d="M440.39 345.581L439.149 362.965L442.252 365.448L447.218 361.102V348.375L440.39 345.581Z"
            fill="#A0616A" />
        <path
            d="M439.304 166.624C445.474 166.624 450.476 161.621 450.476 155.449C450.476 149.277 445.474 144.274 439.304 144.274C433.134 144.274 428.132 149.277 428.132 155.449C428.132 161.621 433.134 166.624 439.304 166.624Z"
            fill="#A0616A" />
        <path
            d="M447.925 170.48C447.59 170.319 447.225 170.231 446.853 170.224C446.482 170.217 446.113 170.29 445.772 170.438C445.095 170.738 444.437 171.081 443.802 171.465C442.172 172.314 440.323 172.65 438.498 172.43C438.284 172.414 438.074 172.36 437.879 172.271C437.671 172.142 437.48 171.988 437.31 171.812C436.649 171.274 435.804 171.015 434.955 171.088C434.106 171.161 433.318 171.561 432.758 172.204C432.43 172.613 432.205 173.102 431.847 173.485C430.92 174.477 429.389 174.517 428.032 174.514C425.217 174.436 422.402 174.694 419.648 175.283C416.882 175.88 414.334 177.23 412.287 179.185C411.728 179.71 411.283 180.345 410.979 181.05C410.605 182.016 410.654 183.1 410.317 184.08C409.943 185.171 409.112 186.066 408.776 187.17C408.523 188.001 408.559 188.927 408.135 189.685C409.949 191.256 411.485 193.349 413.299 194.92C414.5 195.959 415.757 197.084 416.208 198.607C416.411 199.546 416.501 200.506 416.477 201.466C416.701 206.058 419.191 210.223 421.975 213.881C422.738 214.966 423.652 215.937 424.688 216.765C426.095 217.723 427.693 218.365 429.372 218.646C432.543 219.295 435.806 219.291 439.042 219.259C442.386 219.226 445.789 219.155 448.968 218.115C450.586 217.664 452.042 216.76 453.164 215.509C454.471 213.903 454.982 211.579 456.765 210.527C457.197 210.329 457.606 210.085 457.985 209.798C458.349 209.404 458.606 208.924 458.733 208.403C459.357 206.453 459.701 204.425 459.754 202.378C459.708 201.15 459.792 199.921 460.003 198.71C460.311 197.643 460.761 196.622 461.339 195.674L465.036 188.968C465.337 188.423 465.259 187.621 465.286 186.999C465.258 186.103 464.983 185.231 464.491 184.482C462.093 180.243 458.326 176.945 453.809 175.128C453.453 175.007 453.113 174.841 452.8 174.634C452.43 174.323 452.117 173.95 451.876 173.532C450.895 172.053 449.697 170.387 447.925 170.48Z"
            fill="#D0CDE1" />
        <path
            d="M401.852 207.003C401.123 208.775 400.587 210.622 400.255 212.51C399.898 215.118 400.319 217.774 401.464 220.144C403.456 224.246 407.378 227.028 410.146 230.651C412.718 234.018 414.25 238.053 416.477 241.657C416.089 240.74 416.561 239.677 417.196 238.91C417.832 238.143 418.644 237.507 419.11 236.626C419.428 235.945 419.627 235.214 419.7 234.465C420.033 232.231 420.212 229.802 419.073 227.851C418.216 226.383 416.735 225.407 415.562 224.176C414.389 222.922 413.527 221.411 413.046 219.764C412.564 218.116 412.476 216.379 412.789 214.691C413.014 213.529 413.429 212.414 413.74 211.272C414.125 209.737 414.417 208.181 414.613 206.611L416.01 197.009C416.382 194.456 416.696 191.63 415.251 189.492C414.969 189.045 414.578 188.676 414.116 188.419C413.734 188.244 413.327 188.129 412.909 188.079C411.388 187.83 409.328 187.164 408.585 188.794C407.689 190.762 407.065 192.907 406.315 194.935L401.852 207.003Z"
            fill="#D0CDE1" />
        <path
            d="M455.115 212.256C455.115 212.256 436.666 215.826 432.321 215.826H424.563C424.563 215.826 421.77 220.792 421.77 225.759C421.77 230.726 403.46 300.26 403.46 300.26C403.46 300.26 386.08 357.377 405.322 357.687C424.563 357.998 436.666 358.929 436.976 352.41C437.287 345.892 439.149 261.768 439.149 261.768L442.046 305.024C442.824 315.732 441.993 326.497 439.579 336.959C438.19 342.824 438.405 349.254 445.356 350.548C458.7 353.031 475.459 350.858 475.459 346.202C475.459 341.546 466.769 238.176 466.769 238.176C466.769 238.176 462.424 222.965 459.942 221.724C457.459 220.482 455.115 212.256 455.115 212.256Z"
            fill="#2F2E41" />
        <path
            d="M397.253 369.794L404.08 367.31L408.735 355.514L413.701 354.894C413.701 354.894 410.908 360.792 409.356 361.723C407.804 362.654 405.322 370.415 405.322 370.415C405.322 370.415 406.563 373.519 400.666 374.76C394.77 376.002 390.425 376.933 390.425 376.933C390.425 376.933 389.805 375.692 392.598 372.588C395.391 369.483 398.652 364.257 398.652 364.257L397.253 369.794Z"
            fill="#2F2E41" />
        <path
            d="M439.149 355.514L437.907 364.827C437.907 364.827 441.321 369.794 442.252 369.794C443.183 369.794 448.149 365.448 448.149 365.448C448.149 365.448 447.838 360.792 448.149 359.55C448.459 358.308 449.08 352.41 448.149 352.1C447.218 351.789 447.218 359.018 447.218 359.018L443.183 363.275L439.293 360.942L439.149 355.514Z"
            fill="#2F2E41" />
        <path
            d="M440.235 155.449C446.919 155.449 452.338 152.53 452.338 148.93C452.338 145.33 446.919 142.411 440.235 142.411C433.55 142.411 428.132 145.33 428.132 148.93C428.132 152.53 433.55 155.449 440.235 155.449Z"
            fill="#2F2E41" />
        <path d="M0 276.857C0 313.425 22.9353 343.016 51.279 343.016L0 276.857Z" fill="#3F3D56" />
        <path d="M51.2789 343.016C51.2789 306.037 76.8734 276.113 108.503 276.113L51.2789 343.016Z"
            fill="#243763" />
        <path d="M18.5793 280.172C18.5793 314.908 33.2048 343.016 51.279 343.016L18.5793 280.172Z"
            fill="#243763" />
        <path d="M51.2789 343.016C51.2789 295.765 80.8621 257.529 117.421 257.529L51.2789 343.016Z"
            fill="#3F3D56" />
        <path
            d="M40.4912 343.483C40.4912 343.483 47.7634 343.259 49.9551 341.697C52.1467 340.136 61.1415 338.272 61.6852 340.776C62.2289 343.28 72.614 353.228 64.4037 353.294C56.1934 353.36 45.3267 352.015 43.1393 350.682C40.9518 349.349 40.4912 343.483 40.4912 343.483Z"
            fill="#A8A8A8" />
        <path opacity="0.2"
            d="M64.5502 352.422C56.34 352.489 45.4732 351.143 43.2858 349.81C41.6199 348.795 40.9561 345.153 40.734 343.473C40.5802 343.48 40.4912 343.483 40.4912 343.483C40.4912 343.483 40.9518 349.349 43.1393 350.682C45.3267 352.015 56.1935 353.36 64.4037 353.294C66.7737 353.275 67.5923 352.431 67.5474 351.182C67.2181 351.937 66.3142 352.408 64.5502 352.422Z"
            fill="black" />
    </g>
    <defs>
        <clipPath id="clip0_1426_340">
            <rect width="592" height="433" fill="white" />
        </clipPath>
    </defs>
</svg>