<svg width="1200" height="1200" viewBox="0 0 1200 1200" fill="none"
    xmlns="http://www.w3.org/2000/svg">
    <path
        d="M381.562 2.3645C246.375 19.6551 156.656 39.0148 94.1247 64.2858C52.3122 81.2808 22.4997 103.005 9.84346 125.911C4.68721 135.37 0.843461 149.113 0.187211 160.345C-0.187789 168.325 0.187211 171.724 2.24971 180.591C6.93721 201.133 16.3122 215.468 34.6872 230.394C62.6247 253.005 96.3747 269.557 208.593 315.517C320.906 361.478 364.875 386.601 381 413.793C386.156 422.512 385.968 423.842 378.843 432.118C367.125 445.714 343.781 459.458 285 487.094C226.031 514.877 198.093 530.394 177.937 546.207C154.687 564.532 142.125 581.232 135.281 603.104C133.031 610.197 132.75 612.857 132.656 626.01C132.656 640.64 132.75 641.084 136.687 653.793C139.968 663.99 142.406 669.31 148.875 679.655C158.625 695.025 167.812 704.926 184.218 717.488C212.062 738.769 241.968 752.365 327.656 782.512C430.031 818.424 476.531 840.443 520.875 874.138C567 909.015 595.875 945.813 621.093 1001.97C630.375 1022.51 645.093 1047.34 657.187 1062.56C681.937 1093.74 718.406 1123.15 758.906 1144.88C807.656 1170.89 864.75 1189.21 920.156 1196.6L928.593 1197.78L915 1198.52C907.5 1198.97 932.906 1199.56 971.437 1199.7C1014.47 1199.85 1043.06 1199.41 1045.5 1198.52C1047.75 1197.78 1055.25 1196.01 1062.19 1194.83C1105.87 1186.7 1146.66 1166.31 1168.87 1141.33C1206.09 1099.66 1210.12 1042.32 1180.59 976.552C1172.91 959.557 1150.31 923.793 1138.12 909.458C1088.06 850.493 1018.69 804.532 915 761.823C874.312 745.123 832.125 730.493 742.031 701.971C646.593 671.823 636.281 668.276 610.781 658.079C578.718 645.369 555.187 631.035 548.718 620.394C547.031 617.734 545.062 613.153 544.312 610.345C543.093 605.616 543.093 604.581 544.406 600.296C548.906 585.517 569.437 572.069 622.125 549.163C678.843 524.335 699 512.365 714.562 493.892C729.375 476.305 734.625 452.069 728.906 427.537C719.062 385.714 682.031 353.35 603.75 317.882C557.531 297.044 514.781 281.823 399.375 245.172C312 217.389 286.312 208.818 259.687 198.473C214.687 181.034 190.031 166.256 185.343 153.99C179.531 138.325 188.531 122.512 214.031 103.448C249 77.2906 315.843 51.872 397.5 33.8424C405.468 32.069 413.437 29.8522 415.125 28.6699C421.406 24.6798 422.437 8.27583 416.718 2.3645C413.906 -0.591163 404.156 -0.591163 381.562 2.3645Z"
        fill="teal" />
</svg>