<svg width="268" height="278" viewBox="0 0 268 278" fill="none" xmlns="http://www.w3.org/2000/svg">
    <g clip-path="url(#clip0_1426_513)">
        <path
            d="M237.713 211.566L237.707 211.691L243.976 278H198.234L192.305 237.275L189.695 276.956L142.721 276.434L147.711 224.337L151.954 200.189V200.184L152.591 196.55H236.465L236.575 197.866L237.713 211.566Z"
            fill="#2F2E41" />
        <path
            d="M116.829 250.005C121.674 250.888 126.725 245.431 128.112 237.815C128.719 234.481 128.523 231.287 127.705 228.675L128.448 224.285L140.913 165.229C140.913 165.229 163.868 119.295 163.867 111.321C163.867 103.347 157.227 99.4363 157.227 99.4363L148.242 99.5203L120.067 168.36L114.993 219.229L114.172 226.208C112.485 228.364 111.176 231.284 110.569 234.618C109.182 242.233 111.985 249.122 116.829 250.005Z"
            fill="#FFB6B6" />
        <path d="M208.224 70.9809L199.873 51.6626L172.732 56.3616L170.906 79.0902L208.224 70.9809Z"
            fill="#FFB6B6" />
        <path opacity="0.1"
            d="M208.224 70.9809L199.873 51.6626L172.732 56.3616L170.906 79.0902L208.224 70.9809Z"
            fill="black" />
        <path
            d="M267.202 111.184C267.202 111.184 247.89 75.1579 244.237 71.5031C242.61 69.8761 240.054 69.8534 237.716 70.3276L210.833 61.0608L201.721 55.9392L201.121 65.6829L171.206 71.0542C171.373 65.1121 172.21 62.8519 172.21 62.8519L161.25 75.68L139.851 86.1223L139.863 86.2164C138.292 86.7647 136.803 87.703 135.675 89.255C131.5 94.9983 120.017 164.962 120.017 164.962L144.548 170.183L147.887 149.226L150.289 168.095L152.116 203.337C152.116 203.337 185.52 232.054 201.7 221.612C217.879 211.169 237.713 211.691 237.713 211.691L238.208 195.355C238.56 194.792 238.757 194.461 238.757 194.461L238.235 136.515V121.096C242.211 126.637 247.009 131.403 252.588 133.635C270.855 140.945 267.202 111.184 267.202 111.184Z"
            fill="#E6E6E6" />
        <path
            d="M183.466 59.7607C197.255 59.7607 208.434 48.578 208.434 34.7834C208.434 20.9888 197.255 9.80615 183.466 9.80615C169.676 9.80615 158.497 20.9888 158.497 34.7834C158.497 48.578 169.676 59.7607 183.466 59.7607Z"
            fill="#FFB6B6" />
        <path
            d="M201.378 41.8421C201.378 41.8421 203.549 34.2404 208.434 34.7833C213.319 35.3263 214.405 30.9825 213.319 28.8105C212.234 26.6386 210.062 15.7789 210.062 15.7789C210.062 15.7789 211.148 8.17714 204.634 7.09118C198.121 6.00521 195.95 4.91924 194.864 2.74731C193.779 0.575369 177.495 -1.59657 172.067 1.66134C166.639 4.91924 162.297 11.17 158.497 12.9315C154.698 14.693 151.441 17.9509 153.612 23.3807C155.783 28.8105 158.932 39.4301 158.932 39.4301C158.932 39.4301 164.468 37.4983 165.554 40.7562C166.639 44.0141 162.297 39.6702 167.725 30.9825C173.153 22.2947 173.153 13.607 181.837 16.8649C190.522 20.1228 200.292 19.0368 199.207 25.5526C198.121 32.0684 201.378 41.8421 201.378 41.8421Z"
            fill="#2F2E41" />
        <path
            d="M199.851 239.852H10.2252C4.86264 239.852 0.5 235.488 0.5 230.123V129.359C0.5 123.994 4.86264 119.63 10.2252 119.63H199.851C205.214 119.63 209.576 123.994 209.576 129.359V230.123C209.576 235.488 205.214 239.852 199.851 239.852Z"
            fill="white" />
        <path
            d="M199.851 239.852H10.2252C4.86264 239.852 0.5 235.488 0.5 230.123V129.359C0.5 123.994 4.86264 119.63 10.2252 119.63H199.851C205.214 119.63 209.576 123.994 209.576 129.359V230.123C209.576 235.488 205.214 239.852 199.851 239.852ZM10.2252 121.255C5.75832 121.255 2.12404 124.89 2.12404 129.359V230.123C2.12404 234.592 5.75832 238.227 10.2252 238.227H199.851C204.318 238.227 207.952 234.592 207.952 230.123V129.359C207.952 124.89 204.318 121.255 199.851 121.255H10.2252Z"
            fill="#3F3D56" />
        <path
            d="M185.216 131.815C186.561 131.815 187.652 130.723 187.652 129.378C187.652 128.032 186.561 126.941 185.216 126.941C183.87 126.941 182.779 128.032 182.779 129.378C182.779 130.723 183.87 131.815 185.216 131.815Z"
            fill="#3F3D56" />
        <path
            d="M191.712 131.815C193.057 131.815 194.148 130.723 194.148 129.378C194.148 128.032 193.057 126.941 191.712 126.941C190.366 126.941 189.276 128.032 189.276 129.378C189.276 130.723 190.366 131.815 191.712 131.815Z"
            fill="#3F3D56" />
        <path
            d="M198.208 131.815C199.553 131.815 200.644 130.723 200.644 129.378C200.644 128.032 199.553 126.941 198.208 126.941C196.862 126.941 195.772 128.032 195.772 129.378C195.772 130.723 196.862 131.815 198.208 131.815Z"
            fill="#3F3D56" />
        <path
            d="M14.3044 168.775C13.6327 168.775 13.0864 169.321 13.0864 169.993C13.0864 170.321 13.2128 170.624 13.4424 170.847C13.674 171.085 13.9773 171.212 14.3044 171.212H196.584C197.256 171.212 197.802 170.665 197.802 169.993C197.802 169.666 197.675 169.362 197.446 169.139C197.214 168.902 196.911 168.775 196.584 168.775H14.3044Z"
            fill="#E6E6E6" />
        <path
            d="M173.847 168.369V171.618H14.3044C13.8578 171.618 13.4518 171.439 13.1595 171.139C12.859 170.846 12.6804 170.44 12.6804 169.993C12.6804 169.1 13.4112 168.369 14.3044 168.369H173.847Z"
            fill="teal" />
        <path
            d="M194.554 162.276H178.313C176.522 162.276 175.065 160.819 175.065 159.027C175.065 157.235 176.522 155.778 178.313 155.778H194.554C196.345 155.778 197.802 157.235 197.802 159.027C197.802 160.819 196.345 162.276 194.554 162.276Z"
            fill="#E6E6E6" />
        <path
            d="M88.1788 145.218H15.5224C13.7315 145.218 12.2744 143.76 12.2744 141.968C12.2744 140.176 13.7315 138.719 15.5224 138.719H88.1788C89.9698 138.719 91.4269 140.176 91.4269 141.968C91.4269 143.76 89.9698 145.218 88.1788 145.218Z"
            fill="#E6E6E6" />
        <path
            d="M14.3044 205.329C13.6327 205.329 13.0864 205.875 13.0864 206.547C13.0864 206.875 13.2128 207.178 13.4424 207.402C13.674 207.639 13.9773 207.766 14.3044 207.766H196.584C197.256 207.766 197.802 207.219 197.802 206.547C197.802 206.22 197.675 205.917 197.446 205.693C197.214 205.456 196.911 205.329 196.584 205.329H14.3044Z"
            fill="#E6E6E6" />
        <path
            d="M111.321 204.923V208.172H14.3044C13.8578 208.172 13.4518 207.993 13.1595 207.693C12.859 207.4 12.6804 206.994 12.6804 206.547C12.6804 205.654 13.4112 204.923 14.3044 204.923H111.321Z"
            fill="teal" />
        <path
            d="M194.554 198.83H178.313C176.522 198.83 175.065 197.373 175.065 195.581C175.065 193.789 176.522 192.332 178.313 192.332H194.554C196.345 192.332 197.802 193.789 197.802 195.581C197.802 197.373 196.345 198.83 194.554 198.83Z"
            fill="#E6E6E6" />
        <path
            d="M222.985 61.6832C237.031 61.6832 248.417 50.5329 248.417 36.7784C248.417 23.0238 237.031 11.8735 222.985 11.8735C208.939 11.8735 197.553 23.0238 197.553 36.7784C197.553 50.5329 208.939 61.6832 222.985 61.6832Z"
            fill="teal" />
        <path
            d="M231.617 24.2163C228.231 30.3836 224.845 36.551 221.459 42.7183C219.301 38.9043 217.155 35.0835 214.992 31.2724C214.245 29.9562 212.213 31.1401 212.962 32.4596C215.47 36.8774 217.951 41.31 220.459 45.7279C220.888 46.4833 222.065 46.5008 222.489 45.7279C226.208 38.9531 229.928 32.1782 233.647 25.4034C234.376 24.0759 232.346 22.8878 231.617 24.2163Z"
            fill="white" />
        <path
            d="M258.093 102.424L232.754 90.2992C232.754 90.2992 231.737 82.1835 226.985 79.2888C226.177 77.3609 225.248 75.2429 224.403 73.5647C222.316 69.4145 225.447 61.5828 222.838 61.5828C220.228 61.5828 216.37 69.8194 216.574 72.0251C216.731 73.7183 218.13 76.6744 218.419 79.2621C215.237 80.4627 212.67 82.5205 210.982 84.159C209.521 85.577 208.978 87.6925 209.549 89.6469C211.203 95.3103 215.338 107.007 221.272 107.007C229.101 107.007 231.188 105.441 231.188 105.441C231.188 105.441 247.368 125.803 259.373 127.369C271.377 128.936 258.093 102.424 258.093 102.424Z"
            fill="#FFB6B6" />
    </g>
    <defs>
        <clipPath id="clip0_1426_513">
            <rect width="267" height="278" fill="white" transform="translate(0.5)" />
        </clipPath>
    </defs>
</svg>